<svg id="visual" viewBox="0 0 900 600" width="900" height="600" xmlns="http://www.w3.org/2000/svg" xmlns:xlink="http://www.w3.org/1999/xlink" version="1.1"><path d="M0 121L18.8 108C37.7 95 75.3 69 112.8 66C150.3 63 187.7 83 225.2 101C262.7 119 300.3 135 337.8 139C375.3 143 412.7 135 450.2 119C487.7 103 525.3 79 562.8 77C600.3 75 637.7 95 675.2 105C712.7 115 750.3 115 787.8 114C825.3 113 862.7 111 881.3 110L900 109L900 0L881.3 0C862.7 0 825.3 0 787.8 0C750.3 0 712.7 0 675.2 0C637.7 0 600.3 0 562.8 0C525.3 0 487.7 0 450.2 0C412.7 0 375.3 0 337.8 0C300.3 0 262.7 0 225.2 0C187.7 0 150.3 0 112.8 0C75.3 0 37.7 0 18.8 0L0 0Z" fill="#badaf5"></path><path d="M0 169L18.8 160C37.7 151 75.3 133 112.8 135C150.3 137 187.7 159 225.2 175C262.7 191 300.3 201 337.8 206C375.3 211 412.7 211 450.2 200C487.7 189 525.3 167 562.8 166C600.3 165 637.7 185 675.2 195C712.7 205 750.3 205 787.8 199C825.3 193 862.7 181 881.3 175L900 169L900 107L881.3 108C862.7 109 825.3 111 787.8 112C750.3 113 712.7 113 675.2 103C637.7 93 600.3 73 562.8 75C525.3 77 487.7 101 450.2 117C412.7 133 375.3 141 337.8 137C300.3 133 262.7 117 225.2 99C187.7 81 150.3 61 112.8 64C75.3 67 37.7 93 18.8 106L0 119Z" fill="#aed3f3"></path><path d="M0 289L18.8 294C37.7 299 75.3 309 112.8 322C150.3 335 187.7 351 225.2 368C262.7 385 300.3 403 337.8 394C375.3 385 412.7 349 450.2 319C487.7 289 525.3 265 562.8 266C600.3 267 637.7 293 675.2 304C712.7 315 750.3 311 787.8 324C825.3 337 862.7 367 881.3 382L900 397L900 167L881.3 173C862.7 179 825.3 191 787.8 197C750.3 203 712.7 203 675.2 193C637.7 183 600.3 163 562.8 164C525.3 165 487.7 187 450.2 198C412.7 209 375.3 209 337.8 204C300.3 199 262.7 189 225.2 173C187.7 157 150.3 135 112.8 133C75.3 131 37.7 149 18.8 158L0 167Z" fill="#a1ccf2"></path><path d="M0 493L18.8 481C37.7 469 75.3 445 112.8 443C150.3 441 187.7 461 225.2 476C262.7 491 300.3 501 337.8 496C375.3 491 412.7 471 450.2 464C487.7 457 525.3 463 562.8 470C600.3 477 637.7 485 675.2 487C712.7 489 750.3 485 787.8 485C825.3 485 862.7 489 881.3 491L900 493L900 395L881.3 380C862.7 365 825.3 335 787.8 322C750.3 309 712.7 313 675.2 302C637.7 291 600.3 265 562.8 264C525.3 263 487.7 287 450.2 317C412.7 347 375.3 383 337.8 392C300.3 401 262.7 383 225.2 366C187.7 349 150.3 333 112.8 320C75.3 307 37.7 297 18.8 292L0 287Z" fill="#93c2ed"></path><path d="M0 547L18.8 543C37.7 539 75.3 531 112.8 526C150.3 521 187.7 519 225.2 525C262.7 531 300.3 545 337.8 550C375.3 555 412.7 551 450.2 547C487.7 543 525.3 539 562.8 538C600.3 537 637.7 539 675.2 544C712.7 549 750.3 557 787.8 555C825.3 553 862.7 541 881.3 535L900 529L900 491L881.3 489C862.7 487 825.3 483 787.8 483C750.3 483 712.7 487 675.2 485C637.7 483 600.3 475 562.8 468C525.3 461 487.7 455 450.2 462C412.7 469 375.3 489 337.8 494C300.3 499 262.7 489 225.2 474C187.7 459 150.3 439 112.8 441C75.3 443 37.7 467 18.8 479L0 491Z" fill="#83b5e4"></path><path d="M0 601L18.8 601C37.7 601 75.3 601 112.8 601C150.3 601 187.7 601 225.2 601C262.7 601 300.3 601 337.8 601C375.3 601 412.7 601 450.2 601C487.7 601 525.3 601 562.8 601C600.3 601 637.7 601 675.2 601C712.7 601 750.3 601 787.8 601C825.3 601 862.7 601 881.3 601L900 601L900 527L881.3 533C862.7 539 825.3 551 787.8 553C750.3 555 712.7 547 675.2 542C637.7 537 600.3 535 562.8 536C525.3 537 487.7 541 450.2 545C412.7 549 375.3 553 337.8 548C300.3 543 262.7 529 225.2 523C187.7 517 150.3 519 112.8 524C75.3 529 37.7 537 18.8 541L0 545Z" fill="#73a8db"></path></svg>